<svg width="8055" height="3454" viewBox="0 0 8055 3454" fill="none" xmlns="http://www.w3.org/2000/svg">
<path d="M639.986 1370.14C366.264 1047.18 283.26 939.308 205.55 819.962C473.357 1052.17 668.367 1211.29 1048.47 1459.42C762.902 1142.78 636.874 981.178 456.246 713.559C803.459 1058.37 1024.65 1240.67 1470.45 1544.54C1523.15 1409.39 1533.29 1288.54 1514.57 1118.41C1499.1 1009.55 1484.98 953.747 1450.72 863.561C1393.34 721.543 1352.91 656.022 1276.85 545.909C1481.7 677.779 1617.61 793.254 1772.01 1041.07C1925.23 1321.05 1929.43 1441.26 1936.68 1648.81L1936.95 1656.65C1931.85 1741.64 1924 1785.18 1901.77 1855.96C1922.74 1881.32 1933.59 1895.72 1950.56 1921.88C1966.18 1946.01 1974.17 1959.41 1987.41 1983.13C1998.81 2004.07 2004.5 2015.77 2013.88 2036.59C2038.51 2093.76 2059.56 2174.13 2059.56 2174.13C2066.62 2201.67 2069.62 2222.95 2074.09 2266.52C2075.96 2286.72 2076.25 2300.79 2075.65 2329.85C2074.85 2356.02 2073.18 2364.96 2069.94 2379.67C2066.14 2392.51 2063.97 2397.19 2060.08 2400.44C2057.16 2402.24 2055.71 2402.28 2052.81 2400.44C2050.27 2398.45 2049.18 2397.12 2048.14 2394.21C2043.88 2382.36 2039.66 2375.46 2031.53 2363.06C2014.88 2337.06 2006.13 2325.94 1991.04 2309.08C1976 2293.05 1968.13 2285.94 1954.71 2275.35C1928.83 2255.93 1913.2 2247.44 1883.6 2235.9C1871.11 2231.18 1864.05 2229.12 1851.42 2226.04C1831.37 2220.87 1820.12 2219.15 1800.04 2218.25C1763.53 2217.28 1746.64 2218.43 1721.66 2222.92C1671.28 2232.01 1646.23 2240.25 1604.36 2257.7C1587.69 2264.3 1579.66 2268.44 1566.99 2276.38C1555.17 2284.35 1548.43 2287.96 1536.37 2294.03C1514.48 2306.23 1502.67 2311.97 1482.39 2320.5C1459.39 2331.19 1446.3 2336.37 1422.7 2344.38C1400.98 2352.82 1388.18 2356.96 1364.56 2363.58C1343.59 2369.53 1331.62 2372.25 1310.06 2376.56C1292.09 2380.96 1281.97 2382.78 1263.87 2385.38C1234.4 2390.45 1216.93 2391.94 1185.5 2394.21C1131.13 2397.64 1101.79 2397.47 1051.06 2394.21C1021.88 2392.61 1006.28 2391.19 979.437 2387.98C935.533 2382.1 914.293 2378.19 881.339 2370.33C841.503 2361.37 821.417 2355.65 787.393 2344.9C730.788 2327.22 706.269 2318.02 670.09 2302.34C604.523 2275.27 582.478 2263.85 543.964 2243.69C494.567 2217.71 480.315 2208.5 456.315 2192.98L453.651 2191.26C413.31 2166.26 393.848 2152.13 359.705 2126.9C307.416 2087.95 285.858 2068.97 248.63 2035.55C202.934 1993.48 181.276 1970.47 144.304 1929.67C110.617 1892.45 93.702 1871.78 66.4477 1835.2C49.3129 1813.48 42.2063 1802.88 30.115 1784.34C16.7153 1765.39 10.8778 1756.14 0.529785 1739.7L38.9387 1767.21L70.6 1790.05L90.3235 1803.02L102.78 1811.33L121.985 1823.78L143.785 1836.76L169.217 1851.81L198.803 1867.38C214.705 1874.94 223.201 1878.65 237.731 1884.51L296.901 1910.46C319.362 1919.83 331.379 1924.45 352.438 1932.26C380.851 1942.44 398.587 1948.12 431.851 1958.21C498.519 1977.67 538.227 1987.13 619.224 1997.66C645.595 2000.62 661.956 2001.87 691.89 2003.89L750.541 2004.93C838.263 2003.27 880.718 1998.43 946.738 1984.17C1009.35 1968.73 1043.05 1957.46 1100.37 1932.26C1138.79 1915.37 1157.39 1905.34 1186.01 1886.59C1063.73 1790.35 998.254 1733.43 886.529 1627.07C787.138 1529.37 733.579 1472.76 639.986 1370.14Z" fill="url(#paint0_linear_1321_35)"/>
<path d="M1772.01 1041.07C1617.61 793.254 1481.7 677.779 1276.85 545.909C1352.91 656.022 1393.34 721.543 1450.72 863.561C1484.98 953.747 1499.1 1009.55 1514.57 1118.41C1533.29 1288.54 1523.15 1409.39 1470.45 1544.54C1024.65 1240.67 803.459 1058.37 456.246 713.559C636.874 981.178 762.902 1142.78 1048.47 1459.42C668.367 1211.29 473.357 1052.17 205.55 819.962C283.26 939.308 366.264 1047.18 639.986 1370.14C733.579 1472.76 787.138 1529.37 886.529 1627.07C998.254 1733.43 1063.73 1790.35 1186.01 1886.59C1157.39 1905.34 1138.79 1915.37 1100.37 1932.26C1043.05 1957.46 1009.35 1968.73 946.738 1984.17C880.718 1998.43 838.263 2003.27 750.541 2004.93L691.89 2003.89C661.956 2001.87 645.595 2000.62 619.224 1997.66C538.227 1987.13 498.519 1977.67 431.851 1958.21C398.587 1948.12 380.851 1942.44 352.438 1932.26C331.379 1924.45 319.362 1919.83 296.901 1910.46L237.731 1884.51C223.201 1878.65 214.705 1874.94 198.803 1867.38L169.217 1851.81L143.785 1836.76L121.985 1823.78L102.78 1811.33L90.3235 1803.02L70.6 1790.05L38.9387 1767.21L0.529785 1739.7C10.8778 1756.14 16.7153 1765.39 30.115 1784.34C42.2063 1802.88 49.3129 1813.48 66.4477 1835.2C93.702 1871.78 110.617 1892.45 144.304 1929.67C181.276 1970.47 202.934 1993.48 248.63 2035.55C285.858 2068.97 307.416 2087.95 359.705 2126.9C393.848 2152.13 413.31 2166.26 453.651 2191.26M1772.01 1041.07C1927.15 1324.56 1929.51 1444.25 1936.95 1656.65M1772.01 1041.07C1925.23 1321.05 1929.43 1441.26 1936.68 1648.81L1936.95 1656.65M1936.95 1656.65C1931.85 1741.64 1924 1785.18 1901.77 1855.96C1922.74 1881.32 1933.59 1895.72 1950.56 1921.88C1966.18 1946.01 1974.17 1959.41 1987.41 1983.13C1998.81 2004.07 2004.5 2015.77 2013.88 2036.59C2038.51 2093.76 2059.56 2174.13 2059.56 2174.13C2066.62 2201.67 2069.62 2222.95 2074.09 2266.52C2075.96 2286.72 2076.25 2300.79 2075.65 2329.85C2074.85 2356.02 2073.18 2364.96 2069.94 2379.67C2066.14 2392.51 2063.97 2397.19 2060.08 2400.44C2057.16 2402.24 2055.71 2402.28 2052.81 2400.44C2050.27 2398.45 2049.18 2397.12 2048.14 2394.21C2043.88 2382.36 2039.66 2375.46 2031.53 2363.06C2014.88 2337.06 2006.13 2325.94 1991.04 2309.08C1976 2293.05 1968.13 2285.94 1954.71 2275.35C1928.83 2255.93 1913.2 2247.44 1883.6 2235.9C1871.11 2231.18 1864.05 2229.12 1851.42 2226.04C1831.37 2220.87 1820.12 2219.15 1800.04 2218.25C1763.53 2217.28 1746.64 2218.43 1721.66 2222.92C1671.28 2232.01 1646.23 2240.25 1604.36 2257.7C1587.69 2264.3 1579.66 2268.44 1566.99 2276.38C1555.17 2284.35 1548.43 2287.96 1536.37 2294.03C1514.48 2306.23 1502.67 2311.97 1482.39 2320.5C1459.39 2331.19 1446.3 2336.37 1422.7 2344.38C1400.98 2352.82 1388.18 2356.96 1364.56 2363.58C1343.59 2369.53 1331.62 2372.25 1310.06 2376.56C1292.09 2380.96 1281.97 2382.78 1263.87 2385.38C1234.4 2390.45 1216.93 2391.94 1185.5 2394.21C1131.13 2397.64 1101.79 2397.47 1051.06 2394.21C1021.88 2392.61 1006.28 2391.19 979.437 2387.98C935.533 2382.1 914.293 2378.19 881.339 2370.33C841.503 2361.37 821.417 2355.65 787.393 2344.9C730.788 2327.22 706.269 2318.02 670.09 2302.34C604.523 2275.27 582.478 2263.85 543.964 2243.69M543.964 2243.69C492.767 2216.76 479.324 2207.85 453.651 2191.26M543.964 2243.69C494.567 2217.71 480.315 2208.5 456.315 2192.98L453.651 2191.26" stroke="black" stroke-width="1.03808"/>
<path d="M865.02 2757.65C434.173 2687.33 307.871 2630.98 0.669922 2463.24C139.699 2581.64 237.187 2646.74 491.398 2757.65C629.36 2817.88 716.575 2840.96 892.902 2860.95C1001.25 2868.28 1066.51 2869.9 1194.03 2866.11C1265.4 2863.76 1306.96 2859.18 1372.48 2845.45C1699.46 2781.36 1839.86 2719.92 2024.92 2571.71C1818.77 2669.86 1691.82 2708.18 1461.7 2747.32C1181.11 2784.99 1061.85 2779.2 865.02 2757.65Z" fill="url(#paint1_linear_1321_35)" stroke="black" stroke-width="2.06602" stroke-linecap="round"/>
<path d="M3703.17 797.835C3705.26 745.692 3690.03 705.437 3657.5 677.072C3625.38 648.706 3576.78 634.523 3511.7 634.523C3467.49 634.523 3429.11 640.78 3396.57 653.294C3364.04 665.392 3337.96 682.286 3318.36 703.977C3299.17 725.252 3287.28 749.863 3282.69 777.812C3278.1 800.755 3279.56 820.778 3287.07 837.881C3295 854.984 3307.3 869.792 3323.99 882.306C3341.09 894.404 3361.32 905.041 3384.68 914.218C3408.04 922.978 3432.86 930.487 3459.14 936.744L3569.27 964.275C3623.08 976.79 3671.47 993.475 3714.44 1014.33C3757.82 1035.19 3794.11 1060.84 3823.31 1091.3C3852.93 1121.75 3873.79 1157.62 3885.88 1198.92C3897.98 1240.22 3899.65 1287.56 3890.89 1340.96C3877.54 1419.38 3846.46 1487.37 3797.66 1544.94C3748.85 1602.09 3684.82 1646.51 3605.56 1678.22C3526.3 1709.5 3434.53 1725.15 3330.25 1725.15C3226.8 1725.15 3139.4 1709.29 3068.07 1677.59C2996.74 1645.89 2944.81 1598.96 2912.27 1536.81C2880.15 1474.23 2870.55 1396.85 2883.49 1304.66H3145.66C3141.07 1347.63 3147.33 1383.5 3164.43 1412.29C3181.95 1440.65 3208.02 1462.14 3242.65 1476.74C3277.27 1490.92 3317.94 1498.01 3364.66 1498.01C3410.96 1498.01 3452.05 1491.34 3487.93 1477.99C3524.22 1464.64 3553.63 1446.08 3576.15 1422.3C3598.68 1398.52 3612.45 1371.2 3617.45 1340.33C3622.46 1311.55 3618.08 1287.35 3604.31 1267.75C3590.55 1248.14 3568.44 1231.46 3537.98 1217.69C3507.95 1203.51 3470.62 1190.99 3425.98 1180.15L3292.08 1145.11C3188.63 1118.83 3110.41 1077.74 3057.44 1021.84C3004.46 965.944 2985.48 890.649 3000.49 795.958C3013.84 718.369 3046.17 650.583 3097.48 592.6C3149.21 534.2 3214.28 488.94 3292.7 456.82C3371.54 424.282 3457.68 408.014 3551.12 408.014C3646.23 408.014 3726.53 424.491 3792.03 457.445C3857.52 489.983 3905.28 535.451 3935.31 593.851C3965.35 652.252 3974.53 720.246 3962.85 797.835H3703.17ZM4126.54 1707L4025.17 745.9H4294.86L4336.15 1391.64H4344.91L4607.72 745.9H4872.39L4922.45 1387.88H4930.58L5184.63 745.9H5453.68L5032.58 1707H4750.38L4685.3 1102.56H4673.42L4408.11 1707H4126.54ZM5365.21 1707L5525.4 745.9H5791.95L5631.77 1707H5365.21ZM5686.21 620.757C5646.58 620.757 5613.83 607.617 5587.97 581.337C5562.52 554.64 5552.09 522.937 5556.68 486.228C5561.27 448.685 5579.21 416.982 5610.49 391.119C5641.78 364.839 5677.24 351.699 5716.87 351.699C5756.49 351.699 5788.82 364.839 5813.85 391.119C5838.88 416.982 5849.31 448.685 5845.14 486.228C5840.97 522.937 5823.24 554.64 5791.95 581.337C5761.08 607.617 5725.83 620.757 5686.21 620.757ZM6452.46 745.9L6419.3 946.129H5826.12L5859.28 745.9H6452.46ZM5834.26 1707L6006.33 676.446C6017.59 606.783 6040.53 549.008 6075.16 503.123C6110.2 457.237 6153.37 422.822 6204.68 399.879C6256.41 376.936 6312.3 365.465 6372.37 365.465C6413.25 365.465 6450.17 368.594 6483.12 374.851C6516.49 381.108 6540.69 386.739 6555.71 391.745L6476.24 591.974C6466.23 588.637 6453.92 585.508 6439.32 582.588C6424.72 579.668 6409.29 578.209 6393.02 578.209C6354.23 578.209 6325.65 587.386 6307.3 605.74C6289.36 623.677 6277.26 648.914 6271.01 681.452L6100.19 1707H5834.26ZM7055.41 745.9L7022.25 946.129H6442.83L6476.62 745.9H7055.41ZM6645.57 515.637H6912.12L6763.2 1411.66C6759.03 1436.27 6759.65 1455.46 6765.08 1469.23C6770.5 1482.58 6779.47 1491.96 6791.98 1497.39C6804.91 1502.81 6820.35 1505.52 6838.29 1505.52C6850.8 1505.52 6863.52 1504.48 6876.45 1502.39C6889.39 1499.89 6899.19 1498.01 6905.86 1496.76L6915.87 1695.11C6900.86 1699.7 6880.63 1704.71 6855.18 1710.13C6830.15 1715.55 6800.53 1718.89 6766.33 1720.14C6701.25 1722.64 6646.19 1714.09 6601.14 1694.49C6556.09 1674.46 6523.76 1643.8 6504.15 1602.51C6484.55 1561.21 6480.38 1509.27 6491.64 1446.7L6645.57 515.637ZM7104.13 2067.41C7069.92 2067.41 7038.64 2064.7 7010.27 2059.28C6981.9 2054.27 6958.54 2047.81 6940.19 2039.88L7034.05 1840.9C7063.66 1850.5 7090.57 1855.5 7114.76 1855.92C7139.38 1856.34 7161.9 1850.08 7182.34 1837.15C7202.78 1824.22 7221.55 1802.94 7238.66 1773.33L7262.43 1732.65L7082.23 745.9H7352.54L7433.88 1452.96H7443.89L7762.38 745.9H8054.59L7504.59 1810.87C7477.47 1863.01 7445.35 1908.27 7408.23 1946.65C7371.52 1985.03 7327.93 2014.64 7277.45 2035.5C7227.39 2056.78 7169.62 2067.41 7104.13 2067.41Z" fill="#EC695B"/>
<path d="M3150.69 1879.3H3306.6L3184.1 2617.34C3173.3 2683.82 3151.53 2740.35 3118.8 2786.92C3086.4 2833.49 3045.06 2869.09 2994.78 2893.73C2944.84 2918.02 2887.8 2930.17 2823.68 2930.17C2763.95 2930.17 2712.15 2919.54 2668.28 2898.28C2624.75 2876.69 2592.69 2845.64 2572.1 2805.14C2551.86 2764.31 2546.29 2714.87 2555.4 2656.83H2707.26C2703.21 2686.52 2705.74 2711.83 2714.85 2732.76C2724.3 2753.68 2739.49 2769.71 2760.41 2780.84C2781.33 2791.98 2806.64 2797.55 2836.34 2797.55C2870.09 2797.55 2900.29 2790.29 2926.95 2775.78C2953.61 2761.27 2975.71 2740.18 2993.26 2712.51C3010.81 2684.84 3022.96 2651.09 3029.71 2611.27L3150.69 1879.3ZM3624.04 2931.69C3550.14 2931.69 3488.38 2914.82 3438.77 2881.07C3389.16 2846.99 3354.24 2799.41 3333.99 2738.32C3314.08 2676.91 3310.7 2605.53 3323.87 2524.2C3336.69 2444.56 3362.51 2375.04 3401.31 2315.65C3440.46 2256.25 3489.39 2210.19 3548.11 2177.46C3607.17 2144.72 3672.81 2128.35 3745.02 2128.35C3818.93 2128.35 3880.52 2145.4 3929.79 2179.48C3979.39 2213.56 4014.32 2261.32 4034.57 2322.73C4054.82 2384.15 4058.36 2455.7 4045.2 2537.36C4032.38 2616.33 4006.22 2685.51 3966.74 2744.9C3927.59 2803.96 3878.66 2849.86 3819.94 2882.59C3761.22 2915.33 3695.92 2931.69 3624.04 2931.69ZM3632.65 2804.64C3681.24 2804.64 3723.59 2791.81 3759.7 2766.17C3796.15 2740.52 3825.85 2706.43 3848.79 2663.91C3871.74 2621.39 3887.43 2574.82 3895.87 2524.2C3903.63 2475.27 3903.46 2430.56 3895.36 2390.06C3887.6 2349.23 3870.73 2316.49 3844.74 2291.86C3818.76 2267.22 3782.65 2254.9 3736.42 2254.9C3687.82 2254.9 3645.13 2267.9 3608.35 2293.88C3571.9 2319.53 3542.21 2353.78 3519.26 2396.64C3496.65 2439.5 3481.29 2486.24 3473.19 2536.86C3465.43 2585.45 3465.43 2630.17 3473.19 2671C3480.96 2711.5 3497.83 2743.89 3523.81 2768.19C3549.8 2792.49 3586.08 2804.64 3632.65 2804.64ZM4641.05 2593.55L4716.98 2138.48H4868.84L4739.25 2916H4590.43L4613.21 2781.35H4605.11C4580.81 2822.86 4546.39 2857.45 4501.85 2885.12C4457.64 2912.46 4406.34 2926.12 4347.96 2926.12C4298.02 2926.12 4255.66 2915.16 4220.91 2893.22C4186.48 2870.95 4162.02 2838.05 4147.51 2794.51C4133 2750.98 4130.97 2697.15 4141.43 2633.03L4224.45 2138.48H4375.8L4296.33 2614.81C4287.89 2667.79 4295.82 2709.98 4320.12 2741.36C4344.42 2772.75 4379.85 2788.44 4426.42 2788.44C4454.77 2788.44 4484.13 2781.35 4514.5 2767.18C4544.87 2753 4571.7 2731.57 4594.99 2702.89C4618.61 2674.21 4633.96 2637.76 4641.05 2593.55ZM4885.6 2916L5015.19 2138.48H5161.48L5140.73 2261.99H5148.82C5169.75 2220.14 5200.29 2187.24 5240.45 2163.28C5280.61 2138.98 5323.46 2126.84 5369.02 2126.84C5378.81 2126.84 5389.94 2127.17 5402.43 2127.85C5414.92 2128.19 5425.04 2129.03 5432.8 2130.38L5408.5 2275.15C5402.77 2273.46 5392.31 2271.61 5377.12 2269.58C5361.93 2267.22 5346.24 2266.04 5330.04 2266.04C5294.61 2266.04 5261.71 2273.63 5231.33 2288.82C5200.96 2303.67 5175.48 2324.42 5154.9 2351.08C5134.31 2377.4 5120.98 2407.44 5114.91 2441.19L5036.95 2916H4885.6ZM5606.23 2454.35L5530.3 2916H5378.95L5508.53 2138.48H5653.81L5632.55 2265.03H5642.17C5666.81 2223.52 5700.38 2190.45 5742.9 2165.81C5785.76 2140.84 5836.38 2128.35 5894.76 2128.35C5947.41 2128.35 5991.62 2139.49 6027.39 2161.76C6063.5 2183.7 6088.98 2216.43 6103.82 2259.97C6119.01 2303.5 6121.37 2357.32 6110.91 2421.44L6027.9 2916H5876.54L5956.01 2439.67C5965.13 2383.31 5957.7 2339.27 5933.74 2307.55C5910.12 2275.49 5872.49 2259.46 5820.86 2259.46C5785.76 2259.46 5753.2 2267.05 5723.16 2282.24C5693.47 2297.42 5668.32 2319.7 5647.74 2349.06C5627.49 2378.08 5613.66 2413.18 5606.23 2454.35ZM6506.44 2931.69C6430.17 2931.69 6367.06 2915.33 6317.12 2882.59C6267.51 2849.52 6232.75 2803.12 6212.84 2743.39C6192.93 2683.32 6189.72 2612.96 6203.22 2532.3C6216.38 2452.66 6242.87 2382.47 6282.7 2321.72C6322.52 2260.98 6372.12 2213.56 6431.52 2179.48C6491.25 2145.4 6557.22 2128.35 6629.44 2128.35C6673.31 2128.35 6714.65 2135.61 6753.46 2150.12C6792.61 2164.63 6825.85 2187.41 6853.18 2218.46C6880.52 2249.5 6899.41 2289.83 6909.88 2339.44C6920.68 2388.71 6920.34 2448.61 6908.86 2519.14L6900.26 2572.8H6281.68L6299.4 2459.41H6769.15C6776.24 2419.59 6774.38 2384.32 6763.58 2353.61C6752.79 2322.57 6734.23 2298.1 6707.9 2280.21C6681.92 2262.33 6649.18 2253.39 6609.7 2253.39C6569.2 2253.39 6531.41 2264.02 6496.31 2285.28C6461.21 2306.54 6431.86 2333.7 6408.23 2366.77C6384.95 2399.51 6370.27 2433.25 6364.19 2468.01L6346.48 2571.78C6337.7 2628.48 6339.22 2674.04 6351.03 2708.46C6363.18 2742.88 6384.44 2767.85 6414.81 2783.38C6445.19 2798.9 6483.15 2806.66 6528.71 2806.66C6558.07 2806.66 6585.23 2802.61 6610.21 2794.51C6635.52 2786.08 6657.96 2773.76 6677.53 2757.56C6697.1 2741.02 6713.47 2720.44 6726.63 2695.8L6865.33 2721.62C6846.77 2763.8 6820.11 2800.76 6785.35 2832.48C6750.59 2863.86 6709.59 2888.33 6662.34 2905.88C6615.44 2923.09 6563.47 2931.69 6506.44 2931.69ZM6981.56 3207.57C6958.61 3207.57 6938.19 3205.71 6920.31 3202C6902.42 3198.63 6889.09 3194.92 6880.32 3190.87L6938.03 3066.85C6964.69 3074.27 6988.48 3077.14 7009.4 3075.45C7030.66 3073.77 7050.57 3064.99 7069.13 3049.13C7087.69 3033.27 7106.59 3008.3 7125.83 2974.21L7154.17 2923.09L7001.81 2138.48H7157.72L7253.89 2743.39H7261.99L7559.64 2138.48H7728.2L7261.99 3018.76C7240.06 3060.6 7215.09 3095.36 7187.08 3123.04C7159.4 3151.05 7128.36 3172.14 7093.94 3186.31C7059.85 3200.48 7022.39 3207.57 6981.56 3207.57Z" fill="#0B0B0C"/>
<path d="M2964.49 3301.56H2946.44C2945.38 3296.37 2943.51 3291.81 2940.84 3287.89C2938.22 3283.96 2935.02 3280.66 2931.24 3277.99C2927.5 3275.28 2923.36 3273.24 2918.8 3271.88C2914.24 3270.52 2909.48 3269.84 2904.54 3269.84C2895.52 3269.84 2887.34 3272.12 2880.02 3276.68C2872.74 3281.24 2866.95 3287.96 2862.63 3296.83C2858.36 3305.71 2856.23 3316.6 2856.23 3329.5C2856.23 3342.4 2858.36 3353.29 2862.63 3362.17C2866.95 3371.04 2872.74 3377.76 2880.02 3382.32C2887.34 3386.88 2895.52 3389.16 2904.54 3389.16C2909.48 3389.16 2914.24 3388.48 2918.8 3387.12C2923.36 3385.76 2927.5 3383.75 2931.24 3381.08C2935.02 3378.37 2938.22 3375.04 2940.84 3371.12C2943.51 3367.14 2945.38 3362.58 2946.44 3357.44H2964.49C2963.13 3365.05 2960.65 3371.87 2957.06 3377.88C2953.48 3383.9 2949.01 3389.01 2943.68 3393.23C2938.34 3397.4 2932.35 3400.58 2925.71 3402.76C2919.11 3404.95 2912.06 3406.04 2904.54 3406.04C2891.83 3406.04 2880.53 3402.93 2870.63 3396.72C2860.74 3390.52 2852.96 3381.69 2847.28 3370.24C2841.61 3358.8 2838.77 3345.22 2838.77 3329.5C2838.77 3313.79 2841.61 3300.21 2847.28 3288.76C2852.96 3277.31 2860.74 3268.49 2870.63 3262.28C2880.53 3256.07 2891.83 3252.96 2904.54 3252.96C2912.06 3252.96 2919.11 3254.06 2925.71 3256.24C2932.35 3258.42 2938.34 3261.62 2943.68 3265.84C2949.01 3270.01 2953.48 3275.11 2957.06 3281.12C2960.65 3287.09 2963.13 3293.9 2964.49 3301.56ZM3189.02 3329.5C3189.02 3345.22 3186.18 3358.8 3180.5 3370.24C3174.83 3381.69 3167.04 3390.52 3157.15 3396.72C3147.26 3402.93 3135.95 3406.04 3123.25 3406.04C3110.54 3406.04 3099.24 3402.93 3089.34 3396.72C3079.45 3390.52 3071.66 3381.69 3065.99 3370.24C3060.32 3358.8 3057.48 3345.22 3057.48 3329.5C3057.48 3313.79 3060.32 3300.21 3065.99 3288.76C3071.66 3277.31 3079.45 3268.49 3089.34 3262.28C3099.24 3256.07 3110.54 3252.96 3123.25 3252.96C3135.95 3252.96 3147.26 3256.07 3157.15 3262.28C3167.04 3268.49 3174.83 3277.31 3180.5 3288.76C3186.18 3300.21 3189.02 3313.79 3189.02 3329.5ZM3171.55 3329.5C3171.55 3316.6 3169.4 3305.71 3165.08 3296.83C3160.81 3287.96 3155.02 3281.24 3147.69 3276.68C3140.42 3272.12 3132.27 3269.84 3123.25 3269.84C3114.23 3269.84 3106.05 3272.12 3098.73 3276.68C3091.45 3281.24 3085.66 3287.96 3081.34 3296.83C3077.07 3305.71 3074.94 3316.6 3074.94 3329.5C3074.94 3342.4 3077.07 3353.29 3081.34 3362.17C3085.66 3371.04 3091.45 3377.76 3098.73 3382.32C3106.05 3386.88 3114.23 3389.16 3123.25 3389.16C3132.27 3389.16 3140.42 3386.88 3147.69 3382.32C3155.02 3377.76 3160.81 3371.04 3165.08 3362.17C3169.4 3353.29 3171.55 3342.4 3171.55 3329.5ZM3334.99 3404H3289.01V3255H3337.03C3351.48 3255 3363.85 3257.98 3374.13 3263.95C3384.41 3269.87 3392.3 3278.38 3397.78 3289.49C3403.26 3300.55 3406 3313.79 3406 3329.21C3406 3344.73 3403.23 3358.09 3397.7 3369.3C3392.17 3380.45 3384.12 3389.04 3373.55 3395.05C3362.98 3401.02 3350.12 3404 3334.99 3404ZM3307.05 3387.99H3333.83C3346.15 3387.99 3356.36 3385.62 3364.46 3380.86C3372.56 3376.11 3378.59 3369.35 3382.57 3360.57C3386.55 3351.79 3388.54 3341.34 3388.54 3329.21C3388.54 3317.18 3386.57 3306.83 3382.64 3298.14C3378.71 3289.41 3372.85 3282.72 3365.04 3278.06C3357.23 3273.36 3347.5 3271.01 3335.86 3271.01H3307.05V3387.99ZM3505.92 3404V3255H3595.84V3271.01H3523.96V3321.35H3591.19V3337.36H3523.96V3387.99H3597.01V3404H3505.92ZM3864.87 3361.51C3859.01 3361.51 3853.65 3360.08 3848.8 3357.22C3843.95 3354.31 3840.07 3350.43 3837.16 3345.58C3834.29 3340.73 3832.86 3335.37 3832.86 3329.5C3832.86 3323.58 3834.29 3318.22 3837.16 3313.42C3840.07 3308.57 3843.95 3304.72 3848.8 3301.85C3853.65 3298.94 3859.01 3297.49 3864.87 3297.49C3870.79 3297.49 3876.15 3298.94 3880.95 3301.85C3885.8 3304.72 3889.66 3308.57 3892.52 3313.42C3895.43 3318.22 3896.89 3323.58 3896.89 3329.5C3896.89 3335.37 3895.43 3340.73 3892.52 3345.58C3889.66 3350.43 3885.8 3354.31 3880.95 3357.22C3876.15 3360.08 3870.79 3361.51 3864.87 3361.51ZM4137.47 3404V3255H4155.51V3387.99H4224.78V3404H4137.47ZM4322.37 3404V3255H4412.29V3271.01H4340.41V3321.35H4407.64V3337.36H4340.41V3387.99H4413.46V3404H4322.37ZM4520.58 3404H4501.66L4556.38 3255H4575L4629.71 3404H4610.79L4566.27 3278.57H4565.11L4520.58 3404ZM4527.56 3345.8H4603.81V3361.8H4527.56V3345.8ZM4722.58 3404V3255H4772.92C4784.56 3255 4794.12 3256.99 4801.59 3260.97C4809.05 3264.9 4814.58 3270.3 4818.17 3277.19C4821.76 3284.08 4823.56 3291.91 4823.56 3300.69C4823.56 3309.47 4821.76 3317.25 4818.17 3324.04C4814.58 3330.83 4809.08 3336.17 4801.66 3340.05C4794.24 3343.88 4784.75 3345.8 4773.21 3345.8H4732.47V3329.5H4772.63C4780.58 3329.5 4786.99 3328.34 4791.84 3326.01C4796.73 3323.68 4800.28 3320.38 4802.46 3316.11C4804.69 3311.8 4805.8 3306.66 4805.8 3300.69C4805.8 3294.72 4804.69 3289.51 4802.46 3285.05C4800.23 3280.59 4796.66 3277.14 4791.76 3274.72C4786.86 3272.24 4780.39 3271.01 4772.34 3271.01H4740.62V3404H4722.58ZM4792.71 3337.07L4829.38 3404H4808.42L4772.34 3337.07H4792.71ZM5041.43 3255V3404H5023.97L4942.78 3287.01H4941.32V3404H4923.28V3255H4940.74L5022.22 3372.28H5023.68V3255H5041.43ZM5314.04 3361.51C5308.18 3361.51 5302.82 3360.08 5297.97 3357.22C5293.12 3354.31 5289.24 3350.43 5286.33 3345.58C5283.46 3340.73 5282.03 3335.37 5282.03 3329.5C5282.03 3323.58 5283.46 3318.22 5286.33 3313.42C5289.24 3308.57 5293.12 3304.72 5297.97 3301.85C5302.82 3298.94 5308.18 3297.49 5314.04 3297.49C5319.96 3297.49 5325.32 3298.94 5330.12 3301.85C5334.97 3304.72 5338.83 3308.57 5341.69 3313.42C5344.6 3318.22 5346.06 3323.58 5346.06 3329.5C5346.06 3335.37 5344.6 3340.73 5341.69 3345.58C5338.83 3350.43 5334.97 3354.31 5330.12 3357.22C5325.32 3360.08 5319.96 3361.51 5314.04 3361.51ZM5668.13 3292.25C5667.25 3284.88 5663.71 3279.16 5657.5 3275.08C5651.3 3271.01 5643.68 3268.97 5634.66 3268.97C5628.06 3268.97 5622.29 3270.04 5617.34 3272.17C5612.44 3274.31 5608.61 3277.24 5605.85 3280.97C5603.13 3284.71 5601.77 3288.95 5601.77 3293.71C5601.77 3297.68 5602.72 3301.1 5604.61 3303.96C5606.55 3306.78 5609.03 3309.13 5612.03 3311.02C5615.04 3312.86 5618.19 3314.39 5621.49 3315.6C5624.79 3316.77 5627.82 3317.71 5630.58 3318.44L5645.72 3322.52C5649.6 3323.54 5653.91 3324.94 5658.67 3326.74C5663.47 3328.53 5668.05 3330.98 5672.42 3334.08C5676.83 3337.14 5680.47 3341.07 5683.33 3345.87C5686.19 3350.67 5687.62 3356.56 5687.62 3363.55C5687.62 3371.6 5685.51 3378.88 5681.29 3385.38C5677.12 3391.87 5671.01 3397.04 5662.96 3400.87C5654.96 3404.7 5645.23 3406.62 5633.79 3406.62C5623.12 3406.62 5613.88 3404.9 5606.07 3401.45C5598.31 3398.01 5592.2 3393.21 5587.73 3387.05C5583.32 3380.89 5580.82 3373.73 5580.24 3365.59H5598.86C5599.35 3371.21 5601.24 3375.87 5604.54 3379.55C5607.89 3383.19 5612.11 3385.91 5617.2 3387.7C5622.34 3389.45 5627.87 3390.32 5633.79 3390.32C5640.67 3390.32 5646.86 3389.21 5652.34 3386.98C5657.82 3384.7 5662.16 3381.54 5665.36 3377.52C5668.56 3373.44 5670.16 3368.69 5670.16 3363.26C5670.16 3358.31 5668.78 3354.29 5666.02 3351.18C5663.25 3348.08 5659.61 3345.56 5655.1 3343.61C5650.59 3341.67 5645.72 3339.98 5640.48 3338.52L5622.15 3333.28C5610.5 3329.94 5601.29 3325.16 5594.5 3318.95C5587.71 3312.74 5584.31 3304.62 5584.31 3294.58C5584.31 3286.24 5586.57 3278.96 5591.08 3272.75C5595.64 3266.5 5601.75 3261.65 5609.41 3258.2C5617.13 3254.71 5625.73 3252.96 5635.24 3252.96C5644.84 3252.96 5653.38 3254.69 5660.85 3258.13C5668.32 3261.53 5674.24 3266.18 5678.6 3272.1C5683.02 3278.02 5685.34 3284.73 5685.59 3292.25H5668.13ZM5786.94 3404V3255H5804.99V3321.35H5884.43V3255H5902.48V3404H5884.43V3337.36H5804.99V3404H5786.94ZM6014.37 3404H5995.45L6050.16 3255H6068.79L6123.5 3404H6104.58L6060.06 3278.57H6058.89L6014.37 3404ZM6021.35 3345.8H6097.6V3361.8H6021.35V3345.8ZM6216.36 3404V3255H6266.71C6278.35 3255 6287.9 3256.99 6295.37 3260.97C6302.84 3264.9 6308.37 3270.3 6311.96 3277.19C6315.55 3284.08 6317.34 3291.91 6317.34 3300.69C6317.34 3309.47 6315.55 3317.25 6311.96 3324.04C6308.37 3330.83 6302.86 3336.17 6295.44 3340.05C6288.02 3343.88 6278.54 3345.8 6267 3345.8H6226.26V3329.5H6266.42C6274.37 3329.5 6280.77 3328.34 6285.62 3326.01C6290.52 3323.68 6294.06 3320.38 6296.24 3316.11C6298.48 3311.8 6299.59 3306.66 6299.59 3300.69C6299.59 3294.72 6298.48 3289.51 6296.24 3285.05C6294.01 3280.59 6290.45 3277.14 6285.55 3274.72C6280.65 3272.24 6274.18 3271.01 6266.12 3271.01H6234.4V3404H6216.36ZM6286.5 3337.07L6323.16 3404H6302.21L6266.12 3337.07H6286.5ZM6417.06 3404V3255H6506.99V3271.01H6435.11V3321.35H6502.33V3337.36H6435.11V3387.99H6508.15V3404H6417.06Z" fill="#6B7280"/>
<defs>
<linearGradient id="paint0_linear_1321_35" x1="-20.2318" y1="662.888" x2="1808.46" y2="2666.32" gradientUnits="userSpaceOnUse">
<stop stop-color="#F97363"/>
<stop offset="1" stop-color="#EC695B"/>
</linearGradient>
<linearGradient id="paint1_linear_1321_35" x1="-19.58" y1="2488.76" x2="137.431" y2="3257.86" gradientUnits="userSpaceOnUse">
<stop stop-color="#F97363"/>
<stop offset="1" stop-color="#EC695B"/>
</linearGradient>
</defs>
</svg>
