<svg xmlns="http://www.w3.org/2000/svg" fill="currentColor" aria-label="Essential Developer" viewBox="0 0 153 36"><path d="M62.3 13.4H58V5.9h4.3v.4h-3.8v3h3.6v.4h-3.6v3.2h3.8zM69.5 11.5c0 .7.6 1.7 2.2 1.7 1.3 0 2.1-.7 2.1-1.6s-.6-1.3-1.7-1.6l-1-.3c-1-.3-1.7-.8-1.7-1.9 0-1.2 1-2 2.4-2 1.5 0 2.4.8 2.4 1.9h-.5c0-.7-.6-1.5-1.9-1.5-1.2 0-1.9.6-1.9 1.6 0 .8.5 1.2 1.5 1.5l.9.3c1.3.4 2 .8 2 2 0 1.3-1.1 2.1-2.6 2.1-1.9 0-2.6-1.2-2.6-2.1h.4zM81.3 11.5c0 .7.6 1.7 2.2 1.7 1.3 0 2.1-.7 2.1-1.6s-.6-1.3-1.7-1.6l-1-.3c-1-.3-1.7-.8-1.7-1.9 0-1.2 1-2 2.4-2 1.5 0 2.4.8 2.4 1.9h-.5c0-.7-.6-1.5-1.9-1.5-1.2 0-1.9.6-1.9 1.6 0 .8.5 1.2 1.5 1.5l.9.3c1.3.4 2 .8 2 2 0 1.3-1.1 2.1-2.6 2.1-1.9 0-2.6-1.2-2.6-2.1h.4zM97.3 13.4H93V5.9h4.3v.4h-3.8v3h3.6v.4h-3.6v3.2h3.8zM104.5 13.4V5.9h.5l4.3 6.7V5.9h.4v7.5h-.5L105 6.7v6.7zM119 13.4V6.3h-2.5v-.4h5.3v.4h-2.4v7.1zM128.7 13.4V5.9h.4v7.5zM136.1 13.4l2.7-7.5h.5l2.7 7.5h-.5l-.9-2.5h-3.1l-.9 2.5zm2.9-7-1.4 4h2.9zM153 13.4h-4.2V5.9h.5V13h3.8v.4zM62.8 18.8c3.8 0 5.4 2.3 5.4 5.9 0 3.7-1.7 6-5.4 6H58V18.8zm-1.7 9.5h1.2c1.5 0 2.7-.6 2.7-3.5 0-1.9-.5-3.5-2.7-3.5h-1.2zM78 30.7h-8.1V18.8H78v2.4h-5v2.3h4.7v2.2H73v2.4h5zM82.5 30.7l-3.7-11.9h3.6l2.1 8.6h.1l2-8.6H90l-3.6 11.9zM99.4 30.7h-8.1V18.8h8.1v2.4h-5v2.3h4.7v2.2h-4.7v2.4h5zM109.1 30.7h-7.8V18.8h3.1v9.3h4.6v2.6zM109.8 24.2c0-3.4 2-5.5 5.4-5.5s5.4 2.2 5.4 5.5v1.3c0 3.3-1.9 5.5-5.4 5.5-3.4 0-5.4-2.1-5.4-5.5zm3.2 1.3c0 1.9.9 2.9 2.2 2.9s2.2-1 2.2-2.9v-1.4c0-1.9-.9-3-2.2-3s-2.2 1-2.2 3zM127.4 18.8c2.8 0 4.2 1.9 4.2 4.2s-1.4 4.1-4.3 4.1h-2v3.5h-3.1V18.8zm-2 6.1h1.1c1.3 0 2.1-.5 2.1-1.8 0-1.2-.7-1.8-1.8-1.8h-1.3v3.6zM141.2 30.7h-8.1V18.8h8.1v2.4h-5v2.3h4.7v2.2h-4.7v2.4h5zM152.8 22.8c0 2-1.3 3-2.1 3.4l2.4 4.6h-3.4l-2-4.1h-1.4v4.1h-3.1v-12h5.2c2.9 0 4.4 1.7 4.4 4m-5 1.6c1 0 1.8-.5 1.8-1.6s-.8-1.7-1.7-1.7h-1.6v3.3zM20.7 11.7h-6.3v23.4H9l2.3-23.4h-5V9.9h5.2l.3-2.7h2.7v2.7h6.3v1.8zm22.6 0h-5l2.3 23.4h-5.4V11.7h-6.3V9.9h6.3V7.2h2.7l.3 2.7h5.2v1.8zm5-9c-.5.1-1 .2-1.6.3L45 6.3H27v6.3h-4.5V6.3h-18L2.9 3c-.5-.1-1-.2-1.6-.3L0 .9c7.9 1.8 16.3 2.7 24.8 2.7S41.7 2.7 49.6.9z"/></svg>